<svg width="249" height="171" viewBox="0 0 249 171" fill="none" xmlns="http://www.w3.org/2000/svg">
<path d="M28.5844 142.263H217.881C217.881 142.263 223.531 47.5565 169.151 40.8226C124.557 35.3005 126.684 61.3503 98.759 65.8776C50.9642 73.6267 22.8928 90.8465 28.5844 142.263Z" fill="white"/>
<path opacity="0.46" d="M77.7617 100.292L35.0802 142.166H165.806V101.255L77.7617 100.292Z" fill="#BCD5F4"/>
<path d="M67.8524 118.954C68.1544 119.262 68.2786 119.692 68.465 120.078C68.8835 120.944 69.668 121.634 70.592 121.947C71.2155 122.158 71.9764 122.262 72.2966 122.828C72.4196 123.045 72.4529 123.3 72.4735 123.547C72.526 124.178 72.5112 124.813 72.4294 125.441C72.3467 126.075 72.1973 126.73 72.3853 127.342C72.8002 128.692 74.5646 129.129 75.3996 130.277C76.0287 131.142 76.0417 132.328 75.6844 133.332C75.4738 133.923 75.1355 134.484 74.6354 134.874C74.1352 135.263 73.4601 135.462 72.8406 135.309C72.5159 135.23 72.2219 135.061 71.9383 134.886C71.681 134.727 71.4224 134.557 71.242 134.316C70.5756 133.429 71.231 132.019 70.5496 131.143C70.2487 130.756 69.755 130.573 69.3527 130.288C68.5614 129.727 68.1351 128.71 68.2951 127.766C68.3581 127.394 68.5027 127.041 68.5882 126.673C68.8655 125.484 68.466 124.164 67.572 123.316C67.2499 123.01 66.8491 122.731 66.7439 122.303C66.5802 121.639 67.2191 120.986 67.0987 120.313C67.0498 120.039 66.8801 119.803 66.7659 119.548C66.3881 118.705 67.281 118.372 67.8524 118.954Z" fill="#7FABCC"/>
<path d="M67.86 119.958C67.6099 120.642 67.8533 121.423 68.2959 122.006C68.7386 122.589 69.3574 123.014 69.9575 123.441C70.1946 123.609 70.4389 123.789 70.569 124.046C70.6838 124.273 70.6965 124.534 70.7155 124.787C70.7968 125.865 71.0412 126.951 71.6011 127.883C71.9507 128.465 72.4155 128.974 72.7717 129.552C73.5399 130.798 73.7631 132.303 73.7282 133.759" stroke="#BCD5F4" stroke-miterlimit="10"/>
<path d="M75.0445 117.271C75.187 118.266 76.0453 118.991 76.8519 119.609C78.4989 120.87 79.5318 122.48 78.6248 124.559C78.3491 125.19 77.9123 125.75 77.6889 126.401C77.3995 127.244 77.5046 128.21 77.9692 128.974C78.2059 129.363 78.527 129.697 78.777 130.078C79.7588 131.574 79.4833 133.635 78.4606 135.104C77.5126 136.465 75.913 136.633 74.3905 136.125C73.7648 135.917 73.1816 135.524 72.862 134.957C72.1552 133.702 72.9076 132.048 72.311 130.739C72.1819 130.456 71.9948 130.203 71.834 129.936C71.1356 128.775 70.959 127.324 71.3591 126.035C71.6608 125.063 72.2749 124.164 72.3077 123.148C72.3493 121.858 71.4385 120.68 71.4577 119.389C71.4829 117.674 73.1037 116.358 73.4283 114.672C73.4806 114.4 73.4989 114.119 73.5993 113.861C73.6994 113.602 73.9055 113.36 74.1833 113.312C74.6997 113.222 75.0724 113.825 75.086 114.34C75.1114 115.302 74.9077 116.318 75.0445 117.271Z" fill="#8FB7DB"/>
<path d="M74.233 115.45C73.8583 116.885 73.4872 118.426 74.0018 119.819C74.3371 120.727 75.0222 121.481 75.3414 122.394C75.5467 122.981 75.5915 123.622 75.47 124.231C75.3188 124.989 74.9154 125.709 74.9489 126.481C74.9832 127.274 75.4691 127.967 75.7976 128.691C76.3986 130.018 76.4794 131.563 76.0198 132.943C76.0009 133 75.9648 133.068 75.9038 133.064C75.8428 133.061 75.8716 132.936 75.9148 132.978" stroke="#BCD5F4" stroke-miterlimit="10"/>
<path d="M79.4292 135.756C80.121 135.283 80.581 134.554 80.9831 133.826C81.2462 133.351 81.5 132.838 81.4692 132.297C81.4338 131.675 81.0231 131.065 81.2036 130.467C81.3075 130.123 81.5889 129.864 81.8573 129.621C82.2882 129.229 82.7153 128.834 83.138 128.434C83.8841 127.728 84.671 126.882 84.6306 125.866C84.5989 125.066 84.0515 124.372 83.9028 123.585C83.6364 122.176 84.6724 120.855 84.8565 119.433C84.9006 119.092 84.8921 118.732 84.74 118.423C84.5879 118.113 84.2665 117.866 83.9165 117.878C83.5729 118.727 83.2017 119.614 82.4819 120.193C81.6887 120.83 80.5637 121.014 79.8635 121.749C79.3481 122.29 79.1435 123.07 79.2093 123.808C79.2494 124.256 79.3755 124.733 79.1709 125.135C78.9847 125.501 78.5779 125.694 78.2071 125.881C77.4256 126.274 76.6756 126.758 76.11 127.418C75.5444 128.078 75.1766 128.931 75.2374 129.791C75.2785 130.37 75.5088 130.944 75.4119 131.517C75.3107 132.116 74.8661 132.614 74.7451 133.21C74.2663 135.57 77.6707 136.959 79.4292 135.756Z" fill="#A0C3E8"/>
<path d="M83.7547 120.201C83.5043 121.006 83.0467 121.748 82.4361 122.34C82.0126 122.75 81.5146 123.092 81.1609 123.562C80.4823 124.462 80.4443 125.668 80.4715 126.788C80.4985 127.908 80.5489 129.092 79.998 130.073C79.5016 130.957 78.5876 131.541 77.9963 132.366C77.6717 132.819 77.4493 133.342 77.3494 133.887C77.3248 134.021 77.3017 134.167 77.1995 134.258C77.0972 134.349 76.8882 134.322 76.8702 134.188" stroke="#BCD5F4" stroke-miterlimit="10"/>
<path d="M71.127 146.125H79.7008L82.0993 132.806H68.7284L71.127 146.125Z" fill="#569FCC"/>
<path d="M70.1394 140.641L69.2695 135.811H81.5584L80.6883 140.641H70.1394Z" fill="#A0C3E8"/>
<path d="M77.7616 100.292H189.254V105.014H77.7616V100.292Z" fill="#3385FF"/>
<path d="M156.689 105.014H186.046V143.573H156.689V105.014Z" fill="#5798FF"/>
<path d="M158.965 108.004H183.769V140.583H158.965V108.004Z" fill="#3284FF"/>
<path d="M158.965 143.573H183.769V145.776H158.965V143.573Z" fill="#3385FF"/>
<path d="M158.965 118.654H183.769" stroke="#5798FF" stroke-miterlimit="10"/>
<path d="M158.965 130.091H183.769" stroke="#5798FF" stroke-miterlimit="10"/>
<path d="M173.48 113.303C173.48 113.53 173.434 113.755 173.345 113.965C173.257 114.175 173.127 114.366 172.963 114.527C172.799 114.688 172.604 114.815 172.39 114.902C172.176 114.989 171.947 115.034 171.715 115.034C171.247 115.034 170.798 114.852 170.467 114.527C170.136 114.202 169.95 113.762 169.95 113.303C169.95 112.844 170.136 112.403 170.467 112.079C170.798 111.754 171.247 111.572 171.715 111.572C171.947 111.572 172.176 111.616 172.39 111.703C172.604 111.79 172.799 111.918 172.963 112.079C173.127 112.239 173.257 112.43 173.345 112.64C173.434 112.85 173.48 113.075 173.48 113.303V113.303Z" fill="#5798FF"/>
<path d="M173.48 124.162C173.48 124.39 173.434 124.615 173.345 124.825C173.257 125.035 173.127 125.226 172.963 125.387C172.799 125.547 172.604 125.675 172.39 125.762C172.176 125.849 171.947 125.894 171.715 125.894C171.247 125.894 170.798 125.711 170.467 125.387C170.136 125.062 169.95 124.622 169.95 124.162C169.95 123.703 170.136 123.263 170.467 122.938C170.798 122.614 171.247 122.431 171.715 122.431C171.947 122.431 172.176 122.476 172.39 122.563C172.604 122.65 172.799 122.777 172.963 122.938C173.127 123.099 173.257 123.29 173.345 123.5C173.434 123.71 173.48 123.935 173.48 124.162V124.162Z" fill="#5798FF"/>
<path d="M173.48 135.022C173.48 135.481 173.294 135.921 172.963 136.246C172.632 136.571 172.183 136.753 171.715 136.753C171.247 136.753 170.798 136.571 170.467 136.246C170.136 135.921 169.95 135.481 169.95 135.022C169.95 134.563 170.136 134.122 170.467 133.798C170.798 133.473 171.247 133.291 171.715 133.291C171.947 133.291 172.176 133.335 172.39 133.422C172.604 133.509 172.799 133.637 172.963 133.798C173.127 133.958 173.257 134.149 173.345 134.359C173.434 134.569 173.48 134.795 173.48 135.022V135.022Z" fill="#5798FF"/>
<path d="M81.2496 105.014H110.607V143.573H81.2496V105.014Z" fill="#5798FF"/>
<path d="M83.5261 108.004H108.33V140.583H83.5261V108.004Z" fill="#3284FF"/>
<path d="M83.5261 143.573H108.33V145.776H83.5261V143.573Z" fill="#3385FF"/>
<path d="M83.5261 118.654H108.33" stroke="#5798FF" stroke-miterlimit="10"/>
<path d="M83.5261 130.091H108.33" stroke="#5798FF" stroke-miterlimit="10"/>
<path d="M98.0404 113.303C98.0404 113.762 97.8545 114.202 97.5235 114.527C97.1926 114.852 96.7437 115.034 96.2757 115.034C95.8077 115.034 95.3588 114.852 95.0279 114.527C94.6969 114.202 94.511 113.762 94.511 113.303C94.511 112.844 94.6969 112.403 95.0279 112.079C95.3588 111.754 95.8077 111.572 96.2757 111.572C96.7437 111.572 97.1926 111.754 97.5235 112.079C97.8545 112.403 98.0404 112.844 98.0404 113.303V113.303Z" fill="#5798FF"/>
<path d="M98.0404 124.162C98.0404 124.622 97.8545 125.062 97.5235 125.387C97.1926 125.711 96.7437 125.894 96.2757 125.894C95.8077 125.894 95.3588 125.711 95.0279 125.387C94.6969 125.062 94.511 124.622 94.511 124.162C94.511 123.703 94.6969 123.263 95.0279 122.938C95.3588 122.614 95.8077 122.431 96.2757 122.431C96.7437 122.431 97.1926 122.614 97.5235 122.938C97.8545 123.263 98.0404 123.703 98.0404 124.162Z" fill="#5798FF"/>
<path d="M98.0404 135.022C98.0404 135.481 97.8545 135.921 97.5235 136.246C97.1926 136.571 96.7437 136.753 96.2757 136.753C95.8077 136.753 95.3588 136.571 95.0279 136.246C94.6969 135.921 94.511 135.481 94.511 135.022C94.511 134.563 94.6969 134.122 95.0279 133.798C95.3588 133.473 95.8077 133.291 96.2757 133.291C96.7437 133.291 97.1926 133.473 97.5235 133.798C97.8545 134.122 98.0404 134.563 98.0404 135.022V135.022Z" fill="#5798FF"/>
<path d="M135.305 89.0659H140.973V100.293H135.305V89.0659Z" fill="#2E315C"/>
<path d="M154.37 95.8464H121.907C120.565 95.8464 119.476 94.7789 119.476 93.4618V72.3021C119.476 70.9851 120.565 69.9174 121.907 69.9174H154.37C155.713 69.9174 156.801 70.9851 156.801 72.3021V93.4618C156.801 94.7789 155.713 95.8464 154.37 95.8464Z" fill="#472C91"/>
<path d="M153.057 93.525H123.22C121.877 93.525 120.789 92.4572 120.789 91.1402V73.7699C120.789 72.4529 121.877 71.3852 123.22 71.3852H153.058C154.4 71.3852 155.488 72.4529 155.488 73.7699V91.1402C155.488 92.4572 154.4 93.525 153.057 93.525Z" fill="#BCD5F4"/>
<path d="M138.874 94.6003C138.874 94.7916 138.797 94.9751 138.659 95.1104C138.521 95.2457 138.334 95.3217 138.139 95.3217C137.944 95.3217 137.757 95.2457 137.619 95.1104C137.481 94.9751 137.404 94.7916 137.404 94.6003C137.404 94.409 137.481 94.2256 137.619 94.0903C137.757 93.955 137.944 93.879 138.139 93.879C138.334 93.879 138.521 93.955 138.659 94.0903C138.797 94.2256 138.874 94.409 138.874 94.6003V94.6003Z" fill="#F5F5F5"/>
<path d="M131.481 99.0858H144.796V100.292H131.481V99.0858Z" fill="#2E315C"/>
<path d="M146.783 93.8792H149.871V98.8368H146.783V93.8792Z" fill="#5798FF"/>
<path d="M150.934 93.8792H154.022V98.8368H150.934V93.8792Z" fill="#3284FF"/>
<path d="M170.378 100.292H161.234V91.0432C161.234 89.9511 162.136 89.0657 163.25 89.0657H168.362C169.475 89.0657 170.378 89.9511 170.378 91.0432V100.292V100.292Z" fill="#252F60"/>
<path d="M169.362 93.3938C169.362 94.319 168.988 95.2064 168.321 95.8607C167.654 96.5149 166.749 96.8825 165.806 96.8825C165.339 96.8825 164.877 96.7923 164.445 96.6169C164.014 96.4416 163.622 96.1846 163.292 95.8607C162.961 95.5367 162.699 95.1521 162.521 94.7288C162.342 94.3056 162.25 93.8519 162.25 93.3938C162.25 92.9356 162.342 92.4819 162.521 92.0587C162.699 91.6354 162.961 91.2508 163.292 90.9268C163.622 90.6029 164.014 90.3459 164.445 90.1706C164.877 89.9952 165.339 89.905 165.806 89.905C166.273 89.905 166.736 89.9952 167.167 90.1706C167.598 90.3459 167.99 90.6029 168.321 90.9268C168.651 91.2508 168.913 91.6354 169.091 92.0587C169.27 92.4819 169.362 92.9356 169.362 93.3938V93.3938Z" fill="#32427A"/>
<path d="M167.704 93.3938C167.704 93.8877 167.504 94.3614 167.148 94.7106C166.792 95.0599 166.31 95.2561 165.806 95.2561C165.303 95.2561 164.82 95.0599 164.464 94.7106C164.108 94.3614 163.908 93.8877 163.908 93.3938C163.908 93.1492 163.957 92.907 164.052 92.6811C164.148 92.4551 164.288 92.2498 164.464 92.0769C164.64 91.904 164.849 91.7668 165.08 91.6732C165.31 91.5796 165.557 91.5314 165.806 91.5314C166.055 91.5314 166.302 91.5796 166.533 91.6732C166.763 91.7668 166.972 91.904 167.148 92.0769C167.325 92.2498 167.464 92.4551 167.56 92.6811C167.655 92.907 167.704 93.1492 167.704 93.3938V93.3938Z" fill="#415796"/>
<path d="M168.44 99.6891H163.065C162.408 99.6891 161.876 99.1666 161.876 98.522C161.876 97.8773 162.408 97.3548 163.065 97.3548H168.44C169.097 97.3548 169.629 97.8773 169.629 98.522C169.629 99.1666 169.097 99.6891 168.44 99.6891Z" fill="#32427A"/>
<path d="M122.145 100.292H113.001V91.0432C113.001 89.9511 113.903 89.0657 115.017 89.0657H120.129C121.242 89.0657 122.145 89.9511 122.145 91.0432V100.292H122.145Z" fill="#252F60"/>
<path d="M121.129 93.3938C121.129 94.319 120.754 95.2064 120.087 95.8607C119.42 96.5149 118.516 96.8825 117.573 96.8825C117.106 96.8825 116.643 96.7923 116.212 96.6169C115.781 96.4416 115.388 96.1846 115.058 95.8607C114.728 95.5367 114.466 95.1521 114.287 94.7288C114.109 94.3056 114.017 93.8519 114.017 93.3938C114.017 92.9356 114.109 92.4819 114.287 92.0587C114.466 91.6354 114.728 91.2508 115.058 90.9268C115.388 90.6029 115.781 90.3459 116.212 90.1706C116.643 89.9952 117.106 89.905 117.573 89.905C118.04 89.905 118.502 89.9952 118.934 90.1706C119.365 90.3459 119.757 90.6029 120.087 90.9268C120.418 91.2508 120.679 91.6354 120.858 92.0587C121.037 92.4819 121.129 92.9356 121.129 93.3938V93.3938Z" fill="#32427A"/>
<path d="M119.471 93.3938C119.471 93.8877 119.271 94.3614 118.915 94.7106C118.559 95.0599 118.076 95.2561 117.573 95.2561C117.069 95.2561 116.587 95.0599 116.231 94.7106C115.875 94.3614 115.675 93.8877 115.675 93.3938C115.675 93.1492 115.724 92.907 115.819 92.6811C115.914 92.4551 116.054 92.2498 116.231 92.0769C116.407 91.904 116.616 91.7668 116.846 91.6732C117.077 91.5796 117.324 91.5314 117.573 91.5314C117.822 91.5314 118.069 91.5796 118.299 91.6732C118.53 91.7668 118.739 91.904 118.915 92.0769C119.091 92.2498 119.231 92.4551 119.327 92.6811C119.422 92.907 119.471 93.1492 119.471 93.3938V93.3938Z" fill="#415796"/>
<path d="M120.206 99.6891H114.832C114.175 99.6891 113.643 99.1666 113.643 98.522C113.643 97.8773 114.175 97.3548 114.832 97.3548H120.206C120.864 97.3548 121.396 97.8773 121.396 98.522C121.396 99.1666 120.864 99.6891 120.206 99.6891Z" fill="#32427A"/>
<path d="M175.145 96.8863H174.695V87.5413C174.695 87.4647 174.66 87.3936 174.598 87.3464C174.537 87.2992 174.458 87.2824 174.382 87.3009L171.475 88.0046L171.367 87.5754L174.274 86.8718C174.485 86.8207 174.705 86.8669 174.876 86.9985C175.047 87.1302 175.146 87.3281 175.146 87.5413V96.8863H175.145Z" fill="#3385FF"/>
<path d="M176.808 100.292L177.567 94.6536H172.603L173.362 100.292H176.808Z" fill="#FD6E82"/>
<path opacity="0.54" d="M175.318 89.5757H174.852C173.422 89.5757 172.262 90.7136 172.262 92.1168H177.909C177.908 90.7136 176.749 89.5757 175.318 89.5757Z" fill="#3284FF"/>
<path opacity="0.54" d="M176.809 100.292H173.362L172.262 92.117H177.908L176.809 100.292Z" fill="#3284FF"/>
<path d="M172.983 97.473H176.331V95.4498H172.71L172.983 97.473Z" fill="#5798FF"/>
<path d="M74.0896 66.1685H41.6415C40.581 66.1685 39.7212 67.0119 39.7212 68.0524V89.7839C39.7212 90.8244 40.581 91.6679 41.6415 91.6679H74.0896C75.1502 91.6679 76.0099 90.8244 76.0099 89.7839V68.0526C76.0101 67.0119 75.1503 66.1685 74.0896 66.1685Z" fill="#ABCDF3"/>
<path d="M56.6937 69.3299H63.4482V78.7014H56.6937V69.3299Z" fill="#E9EAEE"/>
<path d="M59.4502 67.2346H60.6918V70.8402H59.4502V67.2346Z" fill="#5798FF"/>
<path d="M44.8143 69.5468H51.5688V78.9183H44.8143V69.5468Z" fill="#E9EAEE"/>
<path d="M49.1019 69.2682L49.9799 68.4069L52.5786 70.9565L51.7007 71.8178L49.1019 69.2682Z" fill="#5798FF"/>
<path d="M47.2963 71.701H51.0709" stroke="#472C91" stroke-miterlimit="10"/>
<path d="M45.9056 72.968H51.071" stroke="#472C91" stroke-miterlimit="10"/>
<path d="M45.9056 74.2348H51.071" stroke="#472C91" stroke-miterlimit="10"/>
<path d="M45.9056 75.5017H51.071" stroke="#472C91" stroke-miterlimit="10"/>
<path d="M45.9056 76.7685H51.071" stroke="#472C91" stroke-miterlimit="10"/>
<path d="M45.9056 78.0353H51.071" stroke="#472C91" stroke-miterlimit="10"/>
<path d="M65.9467 70.5356L72.6282 69.5622L74.0314 78.8324L67.3499 79.8059L65.9467 70.5356Z" fill="#E9EAEE"/>
<path d="M70.1442 69.6469L70.8837 68.6684L73.836 70.8159L73.0965 71.7944L70.1442 69.6469Z" fill="#5798FF"/>
<path d="M68.7197 72.307L72.4533 71.7631" stroke="#472C91" stroke-miterlimit="10"/>
<path d="M67.5338 73.7605L72.6431 73.0163" stroke="#472C91" stroke-miterlimit="10"/>
<path d="M67.7235 75.0137L72.8326 74.2693" stroke="#472C91" stroke-miterlimit="10"/>
<path d="M67.9132 76.2667L73.0223 75.5225" stroke="#472C91" stroke-miterlimit="10"/>
<path d="M68.1029 77.5199L73.212 76.7755" stroke="#472C91" stroke-miterlimit="10"/>
<path d="M68.2925 78.7731L73.4016 78.0287" stroke="#472C91" stroke-miterlimit="10"/>
<path d="M44.4381 81.2001L51.1196 80.2267L52.5229 89.497L45.8414 90.4704L44.4381 81.2001Z" fill="#E9EAEE"/>
<path d="M48.6357 80.3107L49.3752 79.3322L52.3276 81.4797L51.5881 82.4582L48.6357 80.3107Z" fill="#5798FF"/>
<path d="M47.212 82.9706L50.9456 82.4267" stroke="#472C91" stroke-miterlimit="10"/>
<path d="M46.026 84.4241L51.1351 83.6797" stroke="#472C91" stroke-miterlimit="10"/>
<path d="M46.2158 85.6773L51.3249 84.9329" stroke="#472C91" stroke-miterlimit="10"/>
<path d="M46.4054 86.9303L51.5145 86.1861" stroke="#472C91" stroke-miterlimit="10"/>
<path d="M46.595 88.1835L51.7043 87.4391" stroke="#472C91" stroke-miterlimit="10"/>
<path d="M46.7848 89.4367L51.8939 88.6923" stroke="#472C91" stroke-miterlimit="10"/>
<path d="M57.0597 80.0838L63.7561 80.9519L62.5047 90.2427L55.8083 89.3747L57.0597 80.0838Z" fill="#E9EAEE"/>
<path d="M61.3411 80.3662L62.3265 79.6253L64.5622 82.4871L63.5767 83.2281L61.3411 80.3662Z" fill="#5798FF"/>
<path d="M59.2277 82.5391L62.9696 83.0243" stroke="#472C91" stroke-miterlimit="10"/>
<path d="M57.6798 83.6162L62.8005 84.2803" stroke="#472C91" stroke-miterlimit="10"/>
<path d="M57.5106 84.8722L62.6313 85.5363" stroke="#472C91" stroke-miterlimit="10"/>
<path d="M57.3413 86.1282L62.462 86.7921" stroke="#472C91" stroke-miterlimit="10"/>
<path d="M57.1722 87.3841L62.2929 88.0481" stroke="#472C91" stroke-miterlimit="10"/>
<path d="M57.0031 88.64L62.1237 89.3041" stroke="#472C91" stroke-miterlimit="10"/>
<path d="M58.8325 72.307H62.209V75.6195H58.8325V72.307Z" stroke="#472C91" stroke-miterlimit="10"/>
<path d="M57.9331 74.7076H59.8116V76.5506H57.9331V74.7076Z" stroke="#472C91" stroke-miterlimit="10"/>
<path d="M35.7656 53.6375H74.8593V55.8859H35.7656V53.6375Z" fill="#569FCC"/>
<path d="M43.3424 59.3836C42.6377 59.3836 42.0663 58.8231 42.0663 58.1316V55.8859H44.6187V58.1316C44.6185 58.8229 44.0473 59.3836 43.3424 59.3836Z" fill="#729CB7"/>
<path d="M67.598 59.3836C66.8932 59.3836 66.3219 58.8231 66.3219 58.1316V55.8859H68.8742V58.1316C68.8743 58.8229 68.3029 59.3836 67.598 59.3836Z" fill="#729CB7"/>
<path d="M52.9443 53.6375H51.7029V42.9466C51.7029 42.274 52.2587 41.7287 52.9443 41.7287V53.6375Z" fill="#729CB7"/>
<path d="M74.2451 53.6375H73.0037V41.7287C73.6891 41.7287 74.2451 42.274 74.2451 42.9466V53.6375Z" fill="#729CB7"/>
<path d="M72.5952 53.2834H69.9542V39.397C69.9542 39.397 70.5042 39.8966 71.2746 39.8966C71.8534 39.8966 72.5952 39.397 72.5952 39.397V53.2834Z" fill="#E9EAEE"/>
<path d="M70.2087 53.6375C69.7575 53.6375 69.3918 53.2785 69.3918 52.8359V39.7821C69.3918 39.3394 69.7577 38.9805 70.2087 38.9805V53.6375Z" fill="#8FB7DB"/>
<path d="M72.1866 53.6375V38.9805C72.6379 38.9805 73.0037 39.3394 73.0037 39.7821V52.8359C73.0035 53.2785 72.6377 53.6375 72.1866 53.6375Z" fill="#8FB7DB"/>
<path d="M69.9541 52.9296H72.4583V53.6375H69.9541V52.9296Z" fill="#8FB7DB"/>
<path d="M70.5703 39.7587V51.3368" stroke="#231F20" stroke-miterlimit="10"/>
<path d="M71.2062 39.9461V51.5242" stroke="#231F20" stroke-miterlimit="10"/>
<path d="M71.7261 39.8524V51.4305" stroke="#231F20" stroke-miterlimit="10"/>
<path d="M69.0288 53.3459H66.3878V39.4595C66.3878 39.4595 66.9377 39.959 67.7082 39.959C68.287 39.959 69.0286 39.4595 69.0286 39.4595V53.3459H69.0288Z" fill="#E9EAEE"/>
<path d="M66.6425 53.6998C66.1913 53.6998 65.8254 53.3408 65.8254 52.8981V39.8444C65.8254 39.4017 66.1913 39.0428 66.6425 39.0428V53.6998Z" fill="#7FABCC"/>
<path d="M68.6204 53.6998V39.0428C69.0716 39.0428 69.4374 39.4017 69.4374 39.8444V52.8981C69.4374 53.341 69.0716 53.6998 68.6204 53.6998Z" fill="#7FABCC"/>
<path d="M66.3879 52.992H68.892V53.6999H66.3879V52.992Z" fill="#7FABCC"/>
<path d="M67.0042 39.8212V51.3993" stroke="#231F20" stroke-miterlimit="10"/>
<path d="M67.64 40.0086V51.5867" stroke="#231F20" stroke-miterlimit="10"/>
<path d="M68.16 39.9149V51.493" stroke="#231F20" stroke-miterlimit="10"/>
<path d="M61.5325 53.4581L59.1899 52.7418L63.103 40.4249C63.103 40.4249 63.45 41.0173 64.1333 41.2262C64.6468 41.3832 65.4454 41.1412 65.4454 41.1412L61.5325 53.4581Z" fill="#E9EAEE"/>
<path d="M59.3163 53.1248C58.9161 53.0025 58.6927 52.585 58.8174 52.1923L62.4958 40.6141C62.6205 40.2215 63.0461 40.0023 63.4463 40.1248L59.3163 53.1248Z" fill="#7FABCC"/>
<path d="M61.0704 53.6612L65.2005 40.661C65.6006 40.7833 65.824 41.2009 65.6993 41.5935L62.0209 53.1717C61.8962 53.5645 61.4706 53.7835 61.0704 53.6612Z" fill="#7FABCC"/>
<path d="M59.287 52.4302L61.508 53.1094L61.3085 53.7373L59.0875 53.058L59.287 52.4302Z" fill="#7FABCC"/>
<path d="M63.5476 40.9128L60.2852 51.1822" stroke="#231F20" stroke-miterlimit="10"/>
<path d="M64.0588 41.2515L60.7964 51.5209" stroke="#231F20" stroke-miterlimit="10"/>
<path d="M64.5466 41.3094L61.2839 51.5789" stroke="#231F20" stroke-miterlimit="10"/>
<path d="M38.4821 45.0923C38.4821 45.0923 38.6094 47.9667 40.9013 48.5287C43.1931 49.0908 38.4821 45.0923 38.4821 45.0923Z" stroke="white" stroke-miterlimit="10"/>
<path d="M40.0062 42.4078C40.0062 42.4078 38.5938 47.0131 41.5301 48.5828C44.4665 50.1527 40.0062 42.4078 40.0062 42.4078Z" stroke="white" stroke-miterlimit="10"/>
<path d="M49.3852 45.0923C49.3852 45.0923 49.2579 47.9667 46.966 48.5287C44.6742 49.0908 49.3852 45.0923 49.3852 45.0923Z" stroke="white" stroke-miterlimit="10"/>
<path d="M47.8613 42.4078C47.8613 42.4078 49.2737 47.0131 46.3373 48.5828C43.4009 50.1527 47.8613 42.4078 47.8613 42.4078Z" stroke="white" stroke-miterlimit="10"/>
<path d="M43.8306 39.4595C43.8306 39.4595 39.4384 49.0285 43.8306 49.3408C48.2226 49.653 43.8306 39.4595 43.8306 39.4595Z" stroke="white" stroke-miterlimit="10"/>
<path d="M38.4821 47.683V49.4424C38.4821 51.7593 40.3965 53.6375 42.7581 53.6375H45.8139C48.1754 53.6375 50.0899 51.7593 50.0899 49.4424V47.683H38.4821Z" fill="#A0C3E8"/>
<path d="M179.818 62.6693H192.116V77.5682H179.818V62.6693Z" fill="#ABCDF3"/>
<path d="M187.282 73.4763H194.768V80.8209H187.282V73.4763Z" stroke="#5798FF" stroke-miterlimit="10"/>
<path d="M184.556 61.9879L178.113 66.6749L177.321 65.6279L183.765 60.9409L184.556 61.9879Z" fill="#5798FF"/>
<path d="M161.161 39.5523C161.161 43.1629 159.699 46.6256 157.097 49.1786C154.494 51.7317 150.965 53.166 147.285 53.166C143.604 53.166 140.075 51.7317 137.472 49.1786C134.87 46.6256 133.408 43.1629 133.408 39.5523C133.408 35.9417 134.87 32.479 137.472 29.926C140.075 27.3729 143.604 25.9386 147.285 25.9386C150.965 25.9386 154.494 27.3729 157.097 29.926C159.699 32.479 161.161 35.9417 161.161 39.5523V39.5523Z" fill="#5798FF"/>
<path d="M159.364 39.5523C159.364 42.6954 158.092 45.7098 155.826 47.9324C153.561 50.1549 150.488 51.4035 147.285 51.4035C144.081 51.4035 141.008 50.1549 138.743 47.9324C136.477 45.7098 135.205 42.6954 135.205 39.5523C135.205 36.4092 136.477 33.3948 138.743 31.1723C141.008 28.9497 144.081 27.7011 147.285 27.7011C150.488 27.7011 153.561 28.9497 155.826 31.1723C158.092 33.3948 159.364 36.4092 159.364 39.5523V39.5523Z" fill="#3385FF"/>
<path d="M158.166 39.5523C158.166 42.3837 157.02 45.0991 154.979 47.1012C152.938 49.1033 150.171 50.2281 147.285 50.2281C144.399 50.2281 141.631 49.1033 139.59 47.1012C137.549 45.0991 136.403 42.3837 136.403 39.5523C136.403 36.7209 137.549 34.0055 139.59 32.0034C141.631 30.0013 144.399 28.8765 147.285 28.8765C150.171 28.8765 152.938 30.0013 154.979 32.0034C157.02 34.0055 158.166 36.7209 158.166 39.5523V39.5523Z" fill="#BCD5F4"/>
<path d="M148.273 39.5523C148.273 39.8094 148.169 40.056 147.983 40.2378C147.798 40.4196 147.547 40.5218 147.285 40.5218C147.022 40.5218 146.771 40.4196 146.586 40.2378C146.4 40.056 146.296 39.8094 146.296 39.5523C146.296 39.2952 146.4 39.0486 146.586 38.8668C146.771 38.685 147.022 38.5828 147.285 38.5828C147.547 38.5828 147.798 38.685 147.983 38.8668C148.169 39.0486 148.273 39.2952 148.273 39.5523Z" fill="#252F60"/>
<path d="M146.964 29.7449H147.605V30.9302H146.964V29.7449Z" fill="#252F60"/>
<path d="M146.964 48.1744H147.605V49.3597H146.964V48.1744Z" fill="#252F60"/>
<path d="M154.132 32.3897L154.585 32.8348L153.731 33.673L153.277 33.2279L154.132 32.3897Z" fill="#252F60"/>
<path d="M140.837 45.4283L141.29 45.8735L140.436 46.7115L139.982 46.2663L140.837 45.4283Z" fill="#252F60"/>
<path d="M156.073 39.2375H157.281V39.8671H156.073V39.2375Z" fill="#252F60"/>
<path d="M137.288 39.2375H138.496V39.8671H137.288V39.2375Z" fill="#252F60"/>
<path d="M154.585 46.2709L154.131 46.716L153.277 45.8778L153.731 45.4328L154.585 46.2709Z" fill="#252F60"/>
<path d="M141.302 33.2378L140.848 33.683L139.994 32.845L140.447 32.3998L141.302 33.2378Z" fill="#252F60"/>
<path d="M147.285 32.4401V39.5523L151.392 43.582" stroke="#252F60" stroke-miterlimit="10"/>
<path d="M133.684 107.413C133.459 105.302 131.532 103.771 129.381 103.992L104.045 106.2L105.023 115.356L130.415 111.607C132.466 111.281 133.901 109.441 133.684 107.413Z" fill="#421710"/>
<path d="M117.284 142.178L123.463 143.558L133.519 108.49C133.977 106.515 132.717 104.55 130.704 104.101C128.637 103.639 126.593 104.955 126.202 106.999L117.284 142.178Z" fill="#421710"/>
<path d="M116.52 82.4094C116.513 82.5935 116.504 82.7776 116.492 82.9615C116.407 84.2957 116.188 85.7057 115.307 86.7252C115.203 86.8449 115.085 86.9619 114.934 87.0128C114.773 87.0673 114.596 87.0395 114.429 87.0084C113.407 86.8179 112.498 86.416 111.513 86.1276C110.632 85.8695 109.822 85.6575 109.106 85.035C107.876 83.9659 107.294 82.3063 107.595 80.7211C108.073 78.21 110.535 76.5542 113.094 77.0229C114.085 77.2044 114.933 77.7235 115.69 78.3572C116.42 78.9688 116.446 80.0845 116.506 80.9789C116.539 81.455 116.539 81.9324 116.52 82.4094Z" fill="#FD6E82"/>
<path d="M118.502 109.55C118.502 109.55 115.145 110.573 110.762 110.573C106.992 110.573 102.46 109.55 102.46 109.55L101.342 92.6338C101.187 90.2889 103.084 88.3032 105.48 88.3032H120.467L118.502 109.55Z" fill="#FE9373"/>
<path d="M123.463 143.558L126.894 146.622L116.811 143.203L117.41 141.505L123.463 143.558Z" fill="#2E315C"/>
<path d="M140.427 109.831C140.098 107.734 138.099 106.295 135.961 106.617L110.762 110.016L112.187 119.116L137.366 114.174C139.399 113.753 140.742 111.846 140.427 109.831Z" fill="#662618"/>
<path d="M138.931 146.383L145.208 145.532L140.382 109.719C140.1 107.713 138.213 106.312 136.169 106.589C134.069 106.874 132.63 108.813 133.001 110.861L138.931 146.383Z" fill="#662618"/>
<path d="M145.208 145.532L149.521 147.208L138.858 147.506L138.806 145.71L145.208 145.532Z" fill="#2E315C"/>
<path d="M124.623 109.591L115.559 90.176L120.165 88.4728C121.636 87.9289 123.278 88.6581 123.833 90.1013L130.41 107.224C131.021 108.815 130.202 110.59 128.581 111.189C127.038 111.76 125.309 111.061 124.623 109.591Z" fill="#FE9373"/>
<path d="M138.918 97.0634C138.918 97.0634 140.092 94.5087 141.376 94.3594C142.66 94.2098 141.197 95.9429 141.197 95.9429C141.197 95.9429 145.518 95.0566 145.905 95.9355C146.291 96.8143 148.491 98.6471 139.974 101.255C139.975 101.255 137.759 101.317 138.918 97.0634Z" fill="#FD6E82"/>
<path d="M142.022 100.703L129.606 110.347C128.491 111.573 126.574 111.681 125.325 110.587C124.075 109.494 123.965 107.613 125.08 106.387L138.737 97.8291C138.737 97.8291 139.901 98.043 140.663 98.8692C141.648 99.9364 142.022 100.703 142.022 100.703Z" fill="#FE9373"/>
<path d="M108.381 83.8207L114.501 84.4956L113.927 89.5002L107.808 88.8253L108.381 83.8207Z" fill="#EF677E"/>
<path d="M102.46 109.865C102.46 109.865 98.7114 119.7 108.452 118.805C108.452 118.805 121.493 121.782 118.502 109.865H102.46Z" fill="#155DB2"/>
<path d="M105.779 88.303C105.779 88.303 108.239 84.5661 115.19 88.2927C115.19 88.2927 113.639 91.1274 110.484 90.4979C107.329 89.8685 105.779 88.303 105.779 88.303Z" fill="#FE9373"/>
<path d="M115.859 82.3332C116.201 82.6637 116.543 82.994 116.885 83.3243C116.903 83.341 116.921 83.3594 116.925 83.3827C116.93 83.4133 116.909 83.4414 116.889 83.4656C116.697 83.7036 116.505 83.9418 116.313 84.18" fill="#FD6E82"/>
<path d="M116.52 76.2014C116.84 76.136 117.223 76.0613 117.451 76.2899C117.531 76.3698 117.577 76.4759 117.614 76.5818C117.991 77.663 117.504 78.9715 116.505 79.5593C116.147 79.7699 115.732 79.899 115.434 80.185C115.067 80.537 114.941 81.0687 114.932 81.5721C114.922 82.0755 115.011 82.5773 114.994 83.0803C114.95 84.4183 114.062 85.7268 112.773 86.166C112.188 86.3653 111.556 86.3887 110.938 86.3641C110.545 86.3484 110.15 86.3136 109.773 86.2018C108.656 85.8699 107.837 84.8827 107.451 83.8022C107.065 82.7218 107.052 81.5501 107.102 80.4063C107.139 79.5447 107.218 78.6542 107.641 77.898C107.972 77.3047 108.587 76.775 109.291 76.6855C109.994 76.596 110.685 76.427 111.4 76.3487C113.102 76.1623 114.83 76.5474 116.52 76.2014Z" fill="#421710"/>
<path d="M114.846 82.0247C114.642 81.845 114.349 81.7663 114.08 81.8179C113.973 81.8383 113.865 81.8821 113.802 81.9682C113.756 82.0299 113.738 82.1069 113.725 82.1823C113.668 82.507 113.687 82.8441 113.779 83.1608C113.844 83.3847 113.945 83.597 114.053 83.8048C114.141 83.9755 114.237 84.147 114.38 84.2772C114.523 84.4073 114.723 84.4909 114.914 84.4517C115.082 83.9636 115.203 83.4579 115.269 82.9467C115.332 82.4646 115.206 82.3407 114.846 82.0247Z" fill="#FD6E82"/>
<path d="M93.6727 89.9052H95.9132V97.1447H93.6727V89.9052Z" fill="#2E315C"/>
<path d="M101.854 89.9052H104.095V97.1447H101.854V89.9052Z" fill="#2E315C"/>
<path d="M126.497 118.713H122.754L120.241 111.309H123.984L126.497 118.713Z" fill="#472C91"/>
<path d="M113.795 128.935H117.01V142.794H113.795V128.935Z" fill="#43487C"/>
<path d="M118.292 128.935H112.035C110.496 128.935 109.249 127.71 109.249 126.201V124.213H121.078V126.201C121.078 127.71 119.831 128.935 118.292 128.935Z" fill="#2E315C"/>
<path d="M112.029 126.888H118.802V134.285H112.029V126.888Z" fill="#2E315C"/>
<path d="M131.173 147.506H101.014C101.014 144.492 103.504 142.05 106.575 142.05H125.612C128.683 142.05 131.173 144.492 131.173 147.506Z" fill="#2E315C"/>
<path d="M117.238 120.983H97.059C95.2713 120.983 93.7241 119.764 93.3394 118.051L88.7932 97.8068C88.4021 96.0652 89.7535 94.4154 91.5714 94.4154H112.369C113.971 94.4154 115.358 95.5087 115.702 97.0437L120.252 117.304C120.676 119.194 119.21 120.983 117.238 120.983Z" fill="#5B34B3"/>
<path d="M111.528 92.8869H88.8905C88.0298 92.8869 87.2744 92.325 87.0422 91.5121L85.6398 86.6033C85.0599 84.5742 86.6146 82.5625 88.7629 82.5625H109.024C110.527 82.5625 111.846 83.5438 112.252 84.9633L113.709 90.0655C114.114 91.4824 113.029 92.8869 111.528 92.8869Z" fill="#5B34B3"/>
<path d="M116.937 117.304L112.387 97.0442C112.042 95.5091 110.656 94.4159 109.053 94.4159H91.5714C89.7537 94.4159 88.4021 96.0655 88.7932 97.8073L93.3394 118.051C93.7241 119.764 95.2711 120.983 97.059 120.983H113.923C115.895 120.983 117.361 119.194 116.937 117.304Z" fill="#472C91"/>
<path d="M110.394 90.0655L108.936 84.9633C108.531 83.5438 107.212 82.5625 105.709 82.5625H88.7629C86.6147 82.5625 85.0601 84.5742 85.6397 86.6033L87.0421 91.5121C87.2744 92.325 88.0297 92.8869 88.8904 92.8869H108.213C109.713 92.8869 110.799 91.4824 110.394 90.0655Z" fill="#472C91"/>
<path d="M132.144 125.72H95.759C93.7867 125.72 92.188 124.152 92.188 122.217C92.188 120.282 93.7867 118.713 95.759 118.713H132.144C134.117 118.713 135.715 120.282 135.715 122.217C135.716 124.152 134.117 125.72 132.144 125.72Z" fill="#5B34B3"/>
<path d="M130.047 122.217C130.047 120.282 128.449 118.713 126.476 118.713H95.759C93.7867 118.713 92.188 120.282 92.188 122.217C92.188 124.152 93.7867 125.72 95.759 125.72H126.476C128.449 125.72 130.047 124.152 130.047 122.217Z" fill="#472C91"/>
<path d="M134.465 112.306H118.721C117.776 112.306 117.01 111.554 117.01 110.627C117.01 109.7 117.776 108.949 118.721 108.949H134.465C135.41 108.949 136.176 109.7 136.176 110.627C136.176 111.554 135.41 112.306 134.465 112.306Z" fill="#5B34B3"/>
</svg>
