<svg width="771" height="552" viewBox="0 0 771 552" fill="none" xmlns="http://www.w3.org/2000/svg">
<path d="M92.1821 459.235H702.645C702.645 459.235 720.865 153.516 545.494 131.778C401.683 113.953 408.543 198.043 318.488 212.657C164.355 237.672 73.8272 293.259 92.1821 459.235Z" fill="white"/>
<path opacity="0.46" d="M250.773 323.751L113.13 458.922H534.707V326.859L250.773 323.751Z" fill="#BCD5F4"/>
<path d="M218.818 383.993C219.791 384.986 220.192 386.374 220.793 387.619C222.142 390.417 224.673 392.643 227.652 393.653C229.663 394.335 232.117 394.671 233.149 396.497C233.546 397.199 233.653 398.02 233.72 398.82C233.889 400.855 233.842 402.906 233.578 404.932C233.311 406.978 232.829 409.092 233.436 411.068C234.774 415.427 240.463 416.836 243.156 420.543C245.185 423.336 245.227 427.165 244.075 430.404C243.396 432.313 242.305 434.125 240.692 435.383C239.079 436.639 236.902 437.28 234.904 436.789C233.857 436.531 232.908 435.985 231.994 435.421C231.164 434.908 230.33 434.358 229.749 433.582C227.599 430.718 229.713 426.168 227.516 423.338C226.545 422.088 224.953 421.499 223.656 420.58C221.104 418.769 219.729 415.485 220.245 412.436C220.448 411.237 220.914 410.097 221.19 408.911C222.085 405.071 220.796 400.811 217.913 398.072C216.874 397.086 215.582 396.183 215.242 394.804C214.715 392.659 216.775 390.55 216.387 388.378C216.229 387.494 215.682 386.732 215.314 385.911C214.095 383.189 216.975 382.113 218.818 383.993Z" fill="#7FABCC"/>
<path d="M218.842 387.232C218.035 389.44 218.82 391.963 220.247 393.845C221.675 395.726 223.67 397.099 225.606 398.475C226.37 399.019 227.158 399.6 227.578 400.43C227.948 401.162 227.989 402.005 228.05 402.82C228.312 406.302 229.1 409.808 230.906 412.815C232.034 414.693 233.532 416.336 234.681 418.202C237.159 422.226 237.878 427.083 237.766 431.783" stroke="#BCD5F4" stroke-miterlimit="10"/>
<path d="M242.011 378.56C242.47 381.769 245.239 384.111 247.84 386.106C253.151 390.178 256.482 395.374 253.557 402.084C252.668 404.123 251.259 405.929 250.539 408.031C249.606 410.754 249.945 413.87 251.443 416.337C252.206 417.594 253.242 418.672 254.048 419.902C257.214 424.729 256.326 431.383 253.028 436.125C249.97 440.519 244.812 441.06 239.902 439.422C237.884 438.749 236.003 437.483 234.973 435.651C232.693 431.6 235.12 426.261 233.196 422.036C232.779 421.122 232.176 420.305 231.657 419.443C229.405 415.696 228.836 411.011 230.126 406.849C231.099 403.711 233.079 400.809 233.185 397.531C233.319 393.365 230.382 389.563 230.444 385.396C230.525 379.859 235.752 375.612 236.799 370.171C236.968 369.293 237.027 368.386 237.35 367.551C237.673 366.716 238.338 365.935 239.234 365.779C240.899 365.49 242.101 367.436 242.145 369.097C242.227 372.202 241.57 375.483 242.011 378.56Z" fill="#8FB7DB"/>
<path d="M239.394 372.68C238.185 377.314 236.989 382.287 238.648 386.784C239.729 389.714 241.939 392.149 242.968 395.097C243.63 396.993 243.775 399.06 243.383 401.027C242.895 403.475 241.595 405.799 241.702 408.291C241.813 410.849 243.38 413.085 244.44 415.425C246.378 419.706 246.638 424.695 245.156 429.148C245.095 429.332 244.979 429.552 244.782 429.541C244.585 429.53 244.678 429.126 244.817 429.263" stroke="#BCD5F4" stroke-miterlimit="10"/>
<path d="M256.151 438.229C258.382 436.702 259.866 434.349 261.163 432.001C262.011 430.465 262.829 428.809 262.73 427.065C262.616 425.056 261.292 423.087 261.874 421.158C262.209 420.048 263.116 419.211 263.982 418.424C265.371 417.162 266.749 415.884 268.112 414.593C270.518 412.315 273.056 409.584 272.925 406.304C272.823 403.723 271.058 401.482 270.578 398.942C269.719 394.392 273.06 390.128 273.654 385.537C273.796 384.436 273.769 383.276 273.278 382.277C272.788 381.278 271.751 380.481 270.622 380.52C269.514 383.26 268.317 386.122 265.996 387.99C263.438 390.049 259.81 390.64 257.552 393.014C255.89 394.761 255.23 397.28 255.442 399.662C255.571 401.106 255.978 402.648 255.318 403.945C254.718 405.126 253.406 405.749 252.21 406.351C249.69 407.622 247.271 409.185 245.447 411.315C243.623 413.443 242.437 416.198 242.633 418.973C242.766 420.843 243.509 422.696 243.196 424.545C242.87 426.479 241.436 428.088 241.046 430.01C239.502 437.629 250.48 442.112 256.151 438.229Z" fill="#A0C3E8"/>
<path d="M270.101 388.017C269.293 390.616 267.817 393.012 265.848 394.922C264.482 396.246 262.876 397.35 261.736 398.866C259.547 401.773 259.425 405.665 259.512 409.28C259.6 412.895 259.762 416.719 257.986 419.886C256.385 422.738 253.437 424.622 251.53 427.287C250.483 428.75 249.766 430.438 249.444 432.197C249.365 432.628 249.29 433.099 248.96 433.393C248.631 433.687 247.957 433.602 247.899 433.168" stroke="#BCD5F4" stroke-miterlimit="10"/>
<path d="M229.378 471.7H257.027L264.762 428.709H221.642L229.378 471.7Z" fill="#569FCC"/>
<path d="M226.192 454L223.387 438.406H263.017L260.212 454H226.192Z" fill="#A0C3E8"/>
<path d="M250.773 323.751H610.326V338.993H250.773V323.751Z" fill="#3385FF"/>
<path d="M505.305 338.993H599.979V463.464H505.305V338.993Z" fill="#5798FF"/>
<path d="M512.647 348.645H592.637V453.811H512.647V348.645Z" fill="#3284FF"/>
<path d="M512.647 463.464H592.637V470.576H512.647V463.464Z" fill="#3385FF"/>
<path d="M512.647 383.023H592.637" stroke="#5798FF" stroke-miterlimit="10"/>
<path d="M512.647 419.941H592.637" stroke="#5798FF" stroke-miterlimit="10"/>
<path d="M559.454 365.75C559.454 366.483 559.307 367.21 559.021 367.888C558.735 368.566 558.316 369.182 557.787 369.701C557.259 370.22 556.631 370.632 555.941 370.913C555.251 371.194 554.51 371.338 553.763 371.338C552.254 371.338 550.806 370.749 549.739 369.701C548.672 368.653 548.072 367.232 548.072 365.75C548.072 364.267 548.672 362.846 549.739 361.798C550.806 360.75 552.254 360.161 553.763 360.161C554.51 360.161 555.251 360.305 555.941 360.586C556.631 360.867 557.259 361.279 557.787 361.798C558.316 362.317 558.735 362.933 559.021 363.611C559.307 364.289 559.454 365.016 559.454 365.75V365.75Z" fill="#5798FF"/>
<path d="M559.454 400.805C559.454 401.539 559.307 402.266 559.021 402.944C558.735 403.622 558.316 404.238 557.787 404.757C557.259 405.276 556.631 405.687 555.941 405.968C555.251 406.249 554.51 406.394 553.763 406.394C552.254 406.394 550.806 405.805 549.739 404.757C548.672 403.709 548.072 402.287 548.072 400.805C548.072 399.323 548.672 397.901 549.739 396.853C550.806 395.805 552.254 395.216 553.763 395.216C554.51 395.216 555.251 395.361 555.941 395.642C556.631 395.922 557.259 396.334 557.787 396.853C558.316 397.372 558.735 397.988 559.021 398.666C559.307 399.344 559.454 400.071 559.454 400.805V400.805Z" fill="#5798FF"/>
<path d="M559.454 435.86C559.454 437.343 558.855 438.764 557.787 439.812C556.72 440.86 555.272 441.449 553.763 441.449C552.254 441.449 550.806 440.86 549.739 439.812C548.672 438.764 548.072 437.343 548.072 435.86C548.072 434.378 548.672 432.957 549.739 431.908C550.806 430.86 552.254 430.272 553.763 430.272C554.51 430.272 555.251 430.416 555.941 430.697C556.631 430.978 557.259 431.39 557.787 431.908C558.316 432.427 558.735 433.044 559.021 433.722C559.307 434.4 559.454 435.126 559.454 435.86V435.86Z" fill="#5798FF"/>
<path d="M262.022 338.993H356.695V463.464H262.022V338.993Z" fill="#5798FF"/>
<path d="M269.363 348.645H349.353V453.811H269.363V348.645Z" fill="#3284FF"/>
<path d="M269.363 463.464H349.353V470.576H269.363V463.464Z" fill="#3385FF"/>
<path d="M269.363 383.023H349.353" stroke="#5798FF" stroke-miterlimit="10"/>
<path d="M269.363 419.941H349.353" stroke="#5798FF" stroke-miterlimit="10"/>
<path d="M316.17 365.75C316.17 367.232 315.571 368.653 314.504 369.701C313.436 370.749 311.989 371.338 310.479 371.338C308.97 371.338 307.523 370.749 306.455 369.701C305.388 368.653 304.788 367.232 304.788 365.75C304.788 364.267 305.388 362.846 306.455 361.798C307.523 360.75 308.97 360.161 310.479 360.161C311.989 360.161 313.436 360.75 314.504 361.798C315.571 362.846 316.17 364.267 316.17 365.75V365.75Z" fill="#5798FF"/>
<path d="M316.17 400.805C316.17 402.287 315.571 403.709 314.504 404.757C313.436 405.805 311.989 406.394 310.479 406.394C308.97 406.394 307.523 405.805 306.455 404.757C305.388 403.709 304.788 402.287 304.788 400.805C304.788 399.323 305.388 397.901 306.455 396.853C307.523 395.805 308.97 395.216 310.479 395.216C311.989 395.216 313.436 395.805 314.504 396.853C315.571 397.901 316.17 399.323 316.17 400.805Z" fill="#5798FF"/>
<path d="M316.17 435.86C316.17 437.343 315.571 438.764 314.504 439.812C313.436 440.86 311.989 441.449 310.479 441.449C308.97 441.449 307.523 440.86 306.455 439.812C305.388 438.764 304.788 437.343 304.788 435.86C304.788 434.378 305.388 432.957 306.455 431.908C307.523 430.86 308.97 430.272 310.479 430.272C311.989 430.272 313.436 430.86 314.504 431.908C315.571 432.957 316.17 434.378 316.17 435.86V435.86Z" fill="#5798FF"/>
<path d="M436.344 287.511H454.623V323.751H436.344V287.511Z" fill="#2E315C"/>
<path d="M497.829 309.399H393.138C388.809 309.399 385.299 305.953 385.299 301.701V233.396C385.299 229.145 388.809 225.698 393.138 225.698H497.829C502.158 225.698 505.668 229.145 505.668 233.396V301.701C505.668 305.953 502.158 309.399 497.829 309.399Z" fill="#472C91"/>
<path d="M493.595 301.905H397.372C393.043 301.905 389.533 298.458 389.533 294.207V238.134C389.533 233.883 393.043 230.436 397.372 230.436H493.596C497.925 230.436 501.435 233.883 501.435 238.134V294.207C501.434 298.458 497.925 301.905 493.595 301.905Z" fill="#BCD5F4"/>
<path d="M447.855 305.377C447.855 305.994 447.605 306.586 447.16 307.023C446.716 307.46 446.113 307.705 445.484 307.705C444.855 307.705 444.252 307.46 443.807 307.023C443.362 306.586 443.113 305.994 443.113 305.377C443.113 304.759 443.362 304.167 443.807 303.73C444.252 303.293 444.855 303.048 445.484 303.048C446.113 303.048 446.716 303.293 447.16 303.73C447.605 304.167 447.855 304.759 447.855 305.377V305.377Z" fill="#F5F5F5"/>
<path d="M424.014 319.856H466.953V323.751H424.014V319.856Z" fill="#2E315C"/>
<path d="M473.359 303.049H483.318V319.052H473.359V303.049Z" fill="#5798FF"/>
<path d="M486.746 303.049H496.704V319.052H486.746V303.049Z" fill="#3284FF"/>
<path d="M549.452 323.751H519.963V293.894C519.963 290.368 522.873 287.51 526.464 287.51H542.951C546.541 287.51 549.452 290.368 549.452 293.894V323.751V323.751Z" fill="#252F60"/>
<path d="M546.176 301.482C546.176 304.468 544.968 307.333 542.817 309.445C540.666 311.557 537.749 312.744 534.708 312.744C533.202 312.744 531.711 312.452 530.319 311.886C528.928 311.32 527.664 310.491 526.599 309.445C525.534 308.399 524.689 307.158 524.113 305.791C523.537 304.425 523.24 302.96 523.24 301.482C523.24 300.003 523.537 298.538 524.113 297.172C524.689 295.805 525.534 294.564 526.599 293.518C527.664 292.472 528.928 291.643 530.319 291.077C531.711 290.511 533.202 290.22 534.708 290.22C536.214 290.22 537.705 290.511 539.097 291.077C540.488 291.643 541.752 292.472 542.817 293.518C543.882 294.564 544.727 295.805 545.303 297.172C545.879 298.538 546.176 300.003 546.176 301.482V301.482Z" fill="#32427A"/>
<path d="M540.83 301.482C540.83 303.076 540.185 304.605 539.037 305.732C537.889 306.86 536.332 307.493 534.708 307.493C533.084 307.493 531.527 306.86 530.379 305.732C529.231 304.605 528.586 303.076 528.586 301.482C528.586 300.692 528.745 299.91 529.052 299.181C529.36 298.452 529.811 297.789 530.379 297.231C530.948 296.672 531.623 296.23 532.365 295.927C533.108 295.625 533.904 295.47 534.708 295.47C535.512 295.47 536.308 295.625 537.051 295.927C537.793 296.23 538.468 296.672 539.037 297.231C539.605 297.789 540.056 298.452 540.364 299.181C540.671 299.91 540.83 300.692 540.83 301.482V301.482Z" fill="#415796"/>
<path d="M543.201 321.804H525.87C523.751 321.804 522.033 320.117 522.033 318.036C522.033 315.955 523.751 314.268 525.87 314.268H543.201C545.32 314.268 547.037 315.955 547.037 318.036C547.037 320.117 545.32 321.804 543.201 321.804Z" fill="#32427A"/>
<path d="M393.905 323.751H364.416V293.894C364.416 290.368 367.327 287.51 370.917 287.51H387.404C390.994 287.51 393.904 290.368 393.904 293.894V323.751H393.905Z" fill="#252F60"/>
<path d="M390.629 301.482C390.629 304.468 389.42 307.333 387.27 309.445C385.119 311.557 382.202 312.744 379.161 312.744C377.655 312.744 376.163 312.452 374.772 311.886C373.381 311.32 372.116 310.491 371.051 309.445C369.987 308.399 369.142 307.158 368.565 305.791C367.989 304.425 367.693 302.96 367.693 301.482C367.693 300.003 367.989 298.538 368.565 297.172C369.142 295.805 369.987 294.564 371.051 293.518C372.116 292.472 373.381 291.643 374.772 291.077C376.163 290.511 377.655 290.22 379.161 290.22C380.667 290.22 382.158 290.511 383.549 291.077C384.941 291.643 386.205 292.472 387.27 293.518C388.335 294.564 389.179 295.805 389.756 297.172C390.332 298.538 390.629 300.003 390.629 301.482V301.482Z" fill="#32427A"/>
<path d="M385.282 301.482C385.282 303.076 384.637 304.605 383.489 305.732C382.341 306.86 380.784 307.493 379.161 307.493C377.537 307.493 375.98 306.86 374.832 305.732C373.684 304.605 373.039 303.076 373.039 301.482C373.039 300.692 373.197 299.91 373.505 299.181C373.812 298.452 374.263 297.789 374.832 297.231C375.4 296.672 376.075 296.23 376.818 295.927C377.561 295.625 378.357 295.47 379.161 295.47C379.964 295.47 380.76 295.625 381.503 295.927C382.246 296.23 382.921 296.672 383.489 297.231C384.058 297.789 384.509 298.452 384.816 299.181C385.124 299.91 385.282 300.692 385.282 301.482V301.482Z" fill="#415796"/>
<path d="M387.653 321.804H370.323C368.204 321.804 366.486 320.117 366.486 318.036C366.486 315.955 368.204 314.268 370.323 314.268H387.653C389.773 314.268 391.491 315.955 391.491 318.036C391.491 320.117 389.773 321.804 387.653 321.804Z" fill="#32427A"/>
<path d="M564.826 312.756H563.374V282.59C563.374 282.342 563.26 282.113 563.062 281.96C562.863 281.808 562.609 281.754 562.364 281.813L552.99 284.085L552.642 282.699L562.017 280.428C562.698 280.263 563.405 280.413 563.958 280.837C564.51 281.263 564.827 281.901 564.827 282.59V312.756H564.826Z" fill="#3385FF"/>
<path d="M570.19 323.751L572.636 305.548H556.628L559.075 323.751H570.19Z" fill="#FD6E82"/>
<path opacity="0.54" d="M565.384 289.157H563.88C559.267 289.157 555.527 292.83 555.527 297.36H573.737C573.737 292.83 569.998 289.157 565.384 289.157Z" fill="#3284FF"/>
<path opacity="0.54" d="M570.19 323.751H559.075L555.527 297.36H573.737L570.19 323.751Z" fill="#3284FF"/>
<path d="M557.852 314.65H568.65V308.118H556.973L557.852 314.65Z" fill="#5798FF"/>
<path d="M238.932 213.596H134.29C130.869 213.596 128.097 216.319 128.097 219.678V289.829C128.097 293.187 130.869 295.91 134.29 295.91H238.932C242.352 295.91 245.124 293.187 245.124 289.829V219.679C245.125 216.319 242.352 213.596 238.932 213.596Z" fill="#ABCDF3"/>
<path d="M182.832 223.802H204.614V254.053H182.832V223.802Z" fill="#E9EAEE"/>
<path d="M191.721 217.038H195.725V228.677H191.721V217.038Z" fill="#5798FF"/>
<path d="M144.522 224.502H166.304V254.754H144.522V224.502Z" fill="#E9EAEE"/>
<path d="M158.349 223.603L161.18 220.822L169.561 229.052L166.73 231.833L158.349 223.603Z" fill="#5798FF"/>
<path d="M152.526 231.456H164.699" stroke="#472C91" stroke-miterlimit="10"/>
<path d="M148.041 235.546H164.699" stroke="#472C91" stroke-miterlimit="10"/>
<path d="M148.041 239.635H164.699" stroke="#472C91" stroke-miterlimit="10"/>
<path d="M148.041 243.725H164.699" stroke="#472C91" stroke-miterlimit="10"/>
<path d="M148.041 247.814H164.699" stroke="#472C91" stroke-miterlimit="10"/>
<path d="M148.041 251.904H164.699" stroke="#472C91" stroke-miterlimit="10"/>
<path d="M212.671 227.694L234.219 224.552L238.744 254.477L217.197 257.619L212.671 227.694Z" fill="#E9EAEE"/>
<path d="M226.208 224.825L228.593 221.666L238.114 228.599L235.729 231.757L226.208 224.825Z" fill="#5798FF"/>
<path d="M221.614 233.412L233.655 231.656" stroke="#472C91" stroke-miterlimit="10"/>
<path d="M217.79 238.104L234.267 235.702" stroke="#472C91" stroke-miterlimit="10"/>
<path d="M218.402 242.149L234.878 239.747" stroke="#472C91" stroke-miterlimit="10"/>
<path d="M219.013 246.194L235.489 243.792" stroke="#472C91" stroke-miterlimit="10"/>
<path d="M219.625 250.24L236.102 247.837" stroke="#472C91" stroke-miterlimit="10"/>
<path d="M220.237 254.285L236.713 251.882" stroke="#472C91" stroke-miterlimit="10"/>
<path d="M143.308 262.12L164.855 258.977L169.381 288.903L147.833 292.045L143.308 262.12Z" fill="#E9EAEE"/>
<path d="M156.845 259.248L159.23 256.09L168.751 263.022L166.366 266.181L156.845 259.248Z" fill="#5798FF"/>
<path d="M152.254 267.835L164.294 266.079" stroke="#472C91" stroke-miterlimit="10"/>
<path d="M148.429 272.527L164.906 270.124" stroke="#472C91" stroke-miterlimit="10"/>
<path d="M149.041 276.572L165.518 274.169" stroke="#472C91" stroke-miterlimit="10"/>
<path d="M149.653 280.617L166.129 278.215" stroke="#472C91" stroke-miterlimit="10"/>
<path d="M150.264 284.662L166.741 282.26" stroke="#472C91" stroke-miterlimit="10"/>
<path d="M150.876 288.708L167.353 286.305" stroke="#472C91" stroke-miterlimit="10"/>
<path d="M184.012 258.516L205.607 261.318L201.571 291.31L179.976 288.508L184.012 258.516Z" fill="#E9EAEE"/>
<path d="M197.819 259.428L200.997 257.036L208.206 266.274L205.028 268.666L197.819 259.428Z" fill="#5798FF"/>
<path d="M191.003 266.442L203.071 268.008" stroke="#472C91" stroke-miterlimit="10"/>
<path d="M186.012 269.919L202.525 272.063" stroke="#472C91" stroke-miterlimit="10"/>
<path d="M185.466 273.973L201.98 276.117" stroke="#472C91" stroke-miterlimit="10"/>
<path d="M184.92 278.028L201.434 280.171" stroke="#472C91" stroke-miterlimit="10"/>
<path d="M184.375 282.082L200.888 284.225" stroke="#472C91" stroke-miterlimit="10"/>
<path d="M183.829 286.136L200.343 288.28" stroke="#472C91" stroke-miterlimit="10"/>
<path d="M189.729 233.412H200.618V244.105H189.729V233.412Z" stroke="#472C91" stroke-miterlimit="10"/>
<path d="M186.828 241.161H192.886V247.111H186.828V241.161Z" stroke="#472C91" stroke-miterlimit="10"/>
<path d="M115.341 173.145H241.414V180.404H115.341V173.145Z" fill="#569FCC"/>
<path d="M139.775 191.694C137.502 191.694 135.659 189.885 135.659 187.653V180.404H143.891V187.653C143.89 189.885 142.048 191.694 139.775 191.694Z" fill="#729CB7"/>
<path d="M217.997 191.694C215.724 191.694 213.881 189.885 213.881 187.653V180.404H222.112V187.653C222.113 189.885 220.27 191.694 217.997 191.694Z" fill="#729CB7"/>
<path d="M170.74 173.145H166.737V138.635C166.737 136.463 168.529 134.703 170.74 134.703V173.145Z" fill="#729CB7"/>
<path d="M239.433 173.145H235.429V134.703C237.64 134.703 239.433 136.463 239.433 138.635V173.145Z" fill="#729CB7"/>
<path d="M234.112 172.003H225.595V127.176C225.595 127.176 227.369 128.789 229.854 128.789C231.72 128.789 234.112 127.176 234.112 127.176V172.003Z" fill="#E9EAEE"/>
<path d="M226.416 173.145C224.961 173.145 223.782 171.987 223.782 170.558V128.419C223.782 126.99 224.962 125.832 226.416 125.832V173.145Z" fill="#8FB7DB"/>
<path d="M232.795 173.145V125.832C234.25 125.832 235.43 126.99 235.43 128.419V170.558C235.429 171.987 234.249 173.145 232.795 173.145Z" fill="#8FB7DB"/>
<path d="M225.595 170.86H233.671V173.145H225.595V170.86Z" fill="#8FB7DB"/>
<path d="M227.582 128.344V165.719" stroke="#231F20" stroke-miterlimit="10"/>
<path d="M229.633 128.949V166.324" stroke="#231F20" stroke-miterlimit="10"/>
<path d="M231.309 128.646V166.021" stroke="#231F20" stroke-miterlimit="10"/>
<path d="M222.611 172.204H214.094V127.378C214.094 127.378 215.868 128.991 218.352 128.991C220.219 128.991 222.611 127.378 222.611 127.378V172.204H222.611Z" fill="#E9EAEE"/>
<path d="M214.915 173.347C213.46 173.347 212.28 172.188 212.28 170.759V128.621C212.28 127.192 213.46 126.033 214.915 126.033V173.347Z" fill="#7FABCC"/>
<path d="M221.294 173.347V126.033C222.749 126.033 223.929 127.192 223.929 128.621V170.759C223.929 172.189 222.749 173.347 221.294 173.347Z" fill="#7FABCC"/>
<path d="M214.095 171.062H222.17V173.347H214.095V171.062Z" fill="#7FABCC"/>
<path d="M216.082 128.546V165.921" stroke="#231F20" stroke-miterlimit="10"/>
<path d="M218.132 129.151V166.525" stroke="#231F20" stroke-miterlimit="10"/>
<path d="M219.809 128.848V166.223" stroke="#231F20" stroke-miterlimit="10"/>
<path d="M198.436 172.566L190.882 170.254L203.501 130.494C203.501 130.494 204.62 132.407 206.824 133.081C208.479 133.588 211.055 132.807 211.055 132.807L198.436 172.566Z" fill="#E9EAEE"/>
<path d="M191.289 171.491C189.998 171.096 189.278 169.748 189.68 168.481L201.543 131.105C201.945 129.838 203.317 129.13 204.608 129.526L191.289 171.491Z" fill="#7FABCC"/>
<path d="M196.946 173.222L210.265 131.257C211.555 131.651 212.276 132.999 211.874 134.267L200.011 171.642C199.609 172.91 198.237 173.617 196.946 173.222Z" fill="#7FABCC"/>
<path d="M191.195 169.248L198.357 171.441L197.714 173.468L190.551 171.275L191.195 169.248Z" fill="#7FABCC"/>
<path d="M204.935 132.069L194.414 165.22" stroke="#231F20" stroke-miterlimit="10"/>
<path d="M206.583 133.163L196.062 166.313" stroke="#231F20" stroke-miterlimit="10"/>
<path d="M208.156 133.35L197.634 166.5" stroke="#231F20" stroke-miterlimit="10"/>
<path d="M124.101 145.561C124.101 145.561 124.511 154.84 131.903 156.654C139.294 158.468 124.101 145.561 124.101 145.561Z" stroke="white" stroke-miterlimit="10"/>
<path d="M129.016 136.895C129.016 136.895 124.461 151.762 133.93 156.829C143.4 161.897 129.016 136.895 129.016 136.895Z" stroke="white" stroke-miterlimit="10"/>
<path d="M159.262 145.561C159.262 145.561 158.852 154.84 151.461 156.654C144.07 158.468 159.262 145.561 159.262 145.561Z" stroke="white" stroke-miterlimit="10"/>
<path d="M154.348 136.895C154.348 136.895 158.903 151.762 149.433 156.829C139.963 161.897 154.348 136.895 154.348 136.895Z" stroke="white" stroke-miterlimit="10"/>
<path d="M141.349 127.378C141.349 127.378 127.185 158.267 141.349 159.276C155.513 160.283 141.349 127.378 141.349 127.378Z" stroke="white" stroke-miterlimit="10"/>
<path d="M124.101 153.924V159.603C124.101 167.083 130.275 173.145 137.891 173.145H147.745C155.361 173.145 161.535 167.083 161.535 159.603V153.924H124.101Z" fill="#A0C3E8"/>
<path d="M579.894 202.301H619.556V250.396H579.894V202.301Z" fill="#ABCDF3"/>
<path d="M603.965 237.187H628.108V260.895H603.965V237.187Z" stroke="#5798FF" stroke-miterlimit="10"/>
<path d="M595.174 200.101L574.395 215.231L571.843 211.851L592.623 196.721L595.174 200.101Z" fill="#5798FF"/>
<path d="M519.728 127.678C519.728 139.333 515.013 150.511 506.621 158.752C498.229 166.994 486.846 171.624 474.978 171.624C463.11 171.624 451.727 166.994 443.335 158.752C434.943 150.511 430.228 139.333 430.228 127.678C430.228 116.022 434.943 104.845 443.335 96.6031C451.727 88.3616 463.11 83.7316 474.978 83.7316C486.846 83.7316 498.229 88.3616 506.621 96.6031C515.013 104.845 519.728 116.022 519.728 127.678V127.678Z" fill="#5798FF"/>
<path d="M513.934 127.678C513.934 137.824 509.83 147.554 502.524 154.729C495.219 161.903 485.31 165.934 474.978 165.934C464.646 165.934 454.737 161.903 447.432 154.729C440.126 147.554 436.022 137.824 436.022 127.678C436.022 117.531 440.126 107.801 447.432 100.626C454.737 93.4518 464.646 89.4212 474.978 89.4212C485.31 89.4212 495.219 93.4518 502.524 100.626C509.83 107.801 513.934 117.531 513.934 127.678V127.678Z" fill="#3385FF"/>
<path d="M510.071 127.678C510.071 136.818 506.374 145.583 499.792 152.046C493.211 158.509 484.285 162.14 474.978 162.14C465.671 162.14 456.745 158.509 450.164 152.046C443.582 145.583 439.885 136.818 439.885 127.678C439.885 118.538 443.582 109.772 450.164 103.309C456.745 96.8462 465.671 93.2153 474.978 93.2153C484.285 93.2153 493.211 96.8462 499.792 103.309C506.374 109.772 510.071 118.538 510.071 127.678V127.678Z" fill="#BCD5F4"/>
<path d="M478.165 127.678C478.165 128.508 477.829 129.304 477.231 129.89C476.634 130.477 475.823 130.807 474.978 130.807C474.133 130.807 473.322 130.477 472.725 129.89C472.127 129.304 471.791 128.508 471.791 127.678C471.791 126.848 472.127 126.052 472.725 125.465C473.322 124.878 474.133 124.548 474.978 124.548C475.823 124.548 476.634 124.878 477.231 125.465C477.829 126.052 478.165 126.848 478.165 127.678Z" fill="#252F60"/>
<path d="M473.943 96.0187H476.013V99.845H473.943V96.0187Z" fill="#252F60"/>
<path d="M473.943 155.51H476.013V159.336H473.943V155.51Z" fill="#252F60"/>
<path d="M497.059 104.556L498.522 105.993L495.768 108.699L494.304 107.262L497.059 104.556Z" fill="#252F60"/>
<path d="M454.184 146.646L455.647 148.083L452.892 150.788L451.429 149.351L454.184 146.646Z" fill="#252F60"/>
<path d="M503.32 126.661H507.217V128.694H503.32V126.661Z" fill="#252F60"/>
<path d="M442.74 126.661H446.636V128.694H442.74V126.661Z" fill="#252F60"/>
<path d="M498.521 149.366L497.058 150.802L494.304 148.097L495.767 146.66L498.521 149.366Z" fill="#252F60"/>
<path d="M455.684 107.294L454.221 108.731L451.466 106.026L452.929 104.589L455.684 107.294Z" fill="#252F60"/>
<path d="M474.978 104.719V127.678L488.223 140.686" stroke="#252F60" stroke-miterlimit="10"/>
<path d="M431.119 346.737C430.392 339.923 424.178 334.979 417.241 335.693L335.534 342.82L338.688 372.379L420.574 360.275C427.189 359.223 431.817 353.282 431.119 346.737Z" fill="#421710"/>
<path d="M378.231 458.96L398.156 463.415L430.584 350.212C432.062 343.839 427.998 337.496 421.508 336.046C414.842 334.555 408.25 338.804 406.989 345.402L378.231 458.96Z" fill="#421710"/>
<path d="M375.767 266.023C375.744 266.618 375.713 267.212 375.675 267.806C375.402 272.112 374.695 276.664 371.853 279.955C371.519 280.342 371.139 280.719 370.65 280.883C370.131 281.059 369.562 280.97 369.022 280.869C365.727 280.254 362.794 278.957 359.618 278.026C356.777 277.193 354.167 276.509 351.856 274.499C347.889 271.048 346.011 265.691 346.983 260.573C348.524 252.467 356.464 247.123 364.717 248.635C367.913 249.221 370.647 250.897 373.088 252.943C375.443 254.917 375.528 258.518 375.721 261.406C375.826 262.942 375.825 264.483 375.767 266.023Z" fill="#FD6E82"/>
<path d="M382.157 353.635C382.157 353.635 371.331 356.937 357.195 356.937C345.038 356.937 330.422 353.635 330.422 353.635L326.818 299.029C326.319 291.459 332.436 285.049 340.161 285.049H388.494L382.157 353.635Z" fill="#FE9373"/>
<path d="M398.156 463.415L409.221 473.305L376.705 462.27L378.634 456.79L398.156 463.415Z" fill="#2E315C"/>
<path d="M452.862 354.543C451.803 347.772 445.355 343.127 438.46 344.167L357.196 355.139L361.792 384.515L442.992 368.562C449.548 367.201 453.88 361.048 452.862 354.543Z" fill="#662618"/>
<path d="M448.038 472.533L468.28 469.786L452.719 354.18C451.807 347.705 445.724 343.182 439.131 344.076C432.358 344.995 427.72 351.257 428.914 357.868L448.038 472.533Z" fill="#662618"/>
<path d="M468.28 469.786L482.191 475.199L447.802 476.159L447.634 470.363L468.28 469.786Z" fill="#2E315C"/>
<path d="M401.896 353.768L372.665 291.094L387.52 285.596C392.265 283.841 397.56 286.195 399.349 290.853L420.559 346.128C422.529 351.261 419.888 356.992 414.66 358.927C409.685 360.768 404.11 358.514 401.896 353.768Z" fill="#FE9373"/>
<path d="M447.995 313.328C447.995 313.328 451.781 305.081 455.923 304.599C460.064 304.116 455.345 309.71 455.345 309.71C455.345 309.71 469.28 306.849 470.528 309.687C471.775 312.523 478.868 318.44 451.404 326.859C451.404 326.859 444.259 327.057 447.995 313.328Z" fill="#FD6E82"/>
<path d="M458.007 325.077L417.965 356.208C414.37 360.165 408.19 360.513 404.16 356.984C400.129 353.454 399.775 347.384 403.37 343.426L447.413 315.799C447.413 315.799 451.168 316.49 453.625 319.157C456.799 322.602 458.007 325.077 458.007 325.077Z" fill="#FE9373"/>
<path d="M349.518 270.579L369.254 272.758L367.405 288.913L347.669 286.734L349.518 270.579Z" fill="#EF677E"/>
<path d="M330.423 354.651C330.423 354.651 318.334 386.399 349.748 383.511C349.748 383.511 391.803 393.12 382.157 354.651H330.423Z" fill="#155DB2"/>
<path d="M341.126 285.048C341.126 285.048 349.058 272.985 371.476 285.015C371.476 285.015 366.475 294.166 356.301 292.134C346.126 290.102 341.126 285.048 341.126 285.048Z" fill="#FE9373"/>
<path d="M373.635 265.777C374.738 266.844 375.841 267.91 376.944 268.977C376.999 269.031 377.058 269.09 377.07 269.165C377.086 269.264 377.019 269.355 376.956 269.433C376.337 270.201 375.718 270.97 375.099 271.739" fill="#FD6E82"/>
<path d="M375.767 245.984C376.797 245.772 378.031 245.531 378.768 246.269C379.026 246.527 379.174 246.87 379.293 247.212C380.51 250.702 378.939 254.925 375.717 256.823C374.563 257.503 373.223 257.92 372.262 258.843C371.078 259.979 370.675 261.695 370.644 263.32C370.613 264.945 370.898 266.565 370.844 268.189C370.701 272.508 367.837 276.732 363.68 278.15C361.794 278.793 359.758 278.869 357.763 278.789C356.497 278.739 355.221 278.627 354.008 278.265C350.406 277.194 347.763 274.007 346.519 270.519C345.274 267.032 345.233 263.249 345.393 259.557C345.514 256.776 345.768 253.901 347.13 251.46C348.199 249.545 350.184 247.835 352.453 247.546C354.719 247.257 356.948 246.712 359.255 246.459C364.743 245.857 370.317 247.101 375.767 245.984Z" fill="#421710"/>
<path d="M370.367 264.781C369.708 264.201 368.765 263.947 367.896 264.114C367.553 264.18 367.204 264.321 366.999 264.599C366.851 264.798 366.793 265.047 366.75 265.29C366.568 266.338 366.629 267.427 366.926 268.449C367.137 269.172 367.463 269.857 367.809 270.528C368.093 271.079 368.402 271.632 368.863 272.053C369.324 272.473 369.969 272.743 370.585 272.616C371.128 271.04 371.518 269.408 371.732 267.758C371.933 266.201 371.528 265.802 370.367 264.781Z" fill="#FD6E82"/>
<path d="M302.085 290.22H309.31V313.59H302.085V290.22Z" fill="#2E315C"/>
<path d="M328.469 290.22H335.695V313.59H328.469V290.22Z" fill="#2E315C"/>
<path d="M407.941 383.215H395.87L387.765 359.314H399.837L407.941 383.215Z" fill="#472C91"/>
<path d="M366.976 416.21H377.347V460.948H366.976V416.21Z" fill="#43487C"/>
<path d="M381.48 416.21H361.302C356.339 416.21 352.316 412.258 352.316 407.385V400.968H390.466V407.385C390.466 412.258 386.443 416.21 381.48 416.21Z" fill="#2E315C"/>
<path d="M361.283 409.605H383.123V433.483H361.283V409.605Z" fill="#2E315C"/>
<path d="M423.019 476.159H325.759C325.759 466.431 333.789 458.546 343.694 458.546H405.085C414.99 458.546 423.019 466.432 423.019 476.159Z" fill="#2E315C"/>
<path d="M378.082 390.542H313.005C307.24 390.542 302.251 386.605 301.01 381.075L286.349 315.727C285.088 310.105 289.446 304.779 295.308 304.779H362.378C367.545 304.779 372.017 308.309 373.128 313.264L387.801 378.665C389.169 384.765 384.441 390.542 378.082 390.542Z" fill="#5B34B3"/>
<path d="M359.668 299.845H286.663C283.887 299.845 281.451 298.032 280.702 295.407L276.18 279.562C274.31 273.011 279.324 266.517 286.252 266.517H351.592C356.438 266.517 360.692 269.685 362 274.267L366.701 290.738C368.006 295.312 364.506 299.845 359.668 299.845Z" fill="#5B34B3"/>
<path d="M377.109 378.667L362.436 313.266C361.325 308.31 356.853 304.781 351.686 304.781H295.308C289.447 304.781 285.088 310.106 286.349 315.729L301.01 381.076C302.251 386.605 307.24 390.543 313.005 390.543H367.39C373.75 390.542 378.478 384.765 377.109 378.667Z" fill="#472C91"/>
<path d="M356.009 290.738L351.308 274.267C350 269.685 345.747 266.517 340.9 266.517H286.251C279.324 266.517 274.31 273.011 276.179 279.562L280.702 295.407C281.451 298.032 283.887 299.845 286.662 299.845H348.976C353.814 299.845 357.315 295.312 356.009 290.738Z" fill="#472C91"/>
<path d="M426.153 405.834H308.813C302.453 405.834 297.297 400.771 297.297 394.525C297.297 388.278 302.453 383.215 308.813 383.215H426.153C432.513 383.215 437.669 388.278 437.669 394.525C437.669 400.771 432.513 405.834 426.153 405.834Z" fill="#5B34B3"/>
<path d="M419.389 394.525C419.389 388.278 414.234 383.215 407.873 383.215H308.813C302.453 383.215 297.297 388.278 297.297 394.525C297.297 400.771 302.453 405.834 308.813 405.834H407.873C414.234 405.834 419.389 400.771 419.389 394.525Z" fill="#472C91"/>
<path d="M433.636 362.532H382.865C379.817 362.532 377.346 360.106 377.346 357.113C377.346 354.12 379.817 351.694 382.865 351.694H433.636C436.683 351.694 439.154 354.12 439.154 357.113C439.154 360.106 436.684 362.532 433.636 362.532Z" fill="#5B34B3"/>
</svg>
