<svg width="265" height="68" viewBox="0 0 265 68" fill="none" xmlns="http://www.w3.org/2000/svg">
<path d="M166.41 49.7408H3.76776V59.8148H166.41V49.7408Z" fill="#007274"/>
<path d="M19.2609 33.4661C20.4063 33.6474 21.4462 34.1158 22.3806 34.8714C23.3451 35.627 24.0987 36.5638 24.6413 37.6821C25.214 38.8003 25.5003 39.9941 25.5003 41.2634C25.5003 42.8652 25.0934 44.3158 24.2795 45.6154C23.4657 46.8847 22.2751 47.8972 20.7077 48.6527C19.1704 49.3781 17.3468 49.7407 15.2369 49.7407H3.48145V18.1434H14.7848C16.9249 18.1434 18.7485 18.5061 20.2556 19.2314C21.7627 19.9265 22.893 20.8785 23.6466 22.0874C24.4001 23.2963 24.7769 24.6563 24.7769 26.1674C24.7769 28.0412 24.2645 29.5976 23.2396 30.8367C22.2449 32.0456 20.9187 32.9221 19.2609 33.4661ZM7.59585 31.7887H14.5135C16.4426 31.7887 17.9346 31.3354 18.9896 30.4287C20.0446 29.5221 20.5721 28.2678 20.5721 26.6661C20.5721 25.0643 20.0446 23.8101 18.9896 22.9034C17.9346 21.9967 16.4124 21.5434 14.4231 21.5434H7.59585V31.7887ZM14.8752 46.3407C16.9249 46.3407 18.5224 45.8572 19.6678 44.8901C20.8132 43.923 21.3859 42.5781 21.3859 40.8554C21.3859 39.1025 20.7831 37.7274 19.5774 36.7301C18.3717 35.7025 16.7591 35.1887 14.7395 35.1887H7.59585V46.3407H14.8752ZM53.1836 24.8981V49.7407H49.0692V46.0687C48.2855 47.3381 47.1853 48.3354 45.7686 49.0607C44.3821 49.7558 42.8448 50.1034 41.1568 50.1034C39.2277 50.1034 37.4946 49.7105 35.9573 48.9247C34.4201 48.1087 33.1993 46.8998 32.295 45.2981C31.4209 43.6963 30.9839 41.747 30.9839 39.4501V24.8981H35.0531V38.9061C35.0531 41.3541 35.671 43.243 36.9068 44.5727C38.1426 45.8723 39.8306 46.5221 41.9707 46.5221C44.1711 46.5221 45.9042 45.8421 47.1702 44.4821C48.4362 43.1221 49.0692 41.1425 49.0692 38.5434V24.8981H53.1836ZM70.3487 24.4901C72.4888 24.4901 74.3576 24.9585 75.9552 25.8954C77.5828 26.8323 78.7885 28.011 79.5722 29.4314V24.8981H83.7318V50.2847C83.7318 52.5514 83.2496 54.5612 82.285 56.3141C81.3205 58.0972 79.9339 59.4874 78.1254 60.4847C76.347 61.4821 74.2672 61.9807 71.886 61.9807C68.6306 61.9807 65.9178 61.2101 63.7476 59.6687C61.5773 58.1274 60.2962 56.027 59.9044 53.3674H63.9737C64.4258 54.8785 65.3602 56.0874 66.7769 56.9941C68.1936 57.931 69.8966 58.3994 71.886 58.3994C74.1466 58.3994 75.9853 57.6892 77.402 56.2687C78.8488 54.8483 79.5722 52.8536 79.5722 50.2847V45.0714C78.7584 46.5221 77.5527 47.731 75.9552 48.6981C74.3576 49.6652 72.4888 50.1487 70.3487 50.1487C68.1483 50.1487 66.1439 49.6047 64.3354 48.5167C62.5569 47.4287 61.1553 45.9025 60.1305 43.9381C59.1056 41.9736 58.5932 39.7372 58.5932 37.2287C58.5932 34.6901 59.1056 32.4687 60.1305 30.5647C61.1553 28.6305 62.5569 27.1345 64.3354 26.0767C66.1439 25.019 68.1483 24.4901 70.3487 24.4901ZM79.5722 37.2741C79.5722 35.4003 79.1954 33.7683 78.4419 32.3781C77.6883 30.9878 76.6635 29.9301 75.3674 29.2047C74.1014 28.4492 72.6998 28.0714 71.1626 28.0714C69.6253 28.0714 68.2237 28.4341 66.9577 29.1594C65.6918 29.8847 64.682 30.9425 63.9284 32.3327C63.1749 33.723 62.7981 35.355 62.7981 37.2287C62.7981 39.1327 63.1749 40.795 63.9284 42.2154C64.682 43.6056 65.6918 44.6785 66.9577 45.4341C68.2237 46.1594 69.6253 46.5221 71.1626 46.5221C72.6998 46.5221 74.1014 46.1594 75.3674 45.4341C76.6635 44.6785 77.6883 43.6056 78.4419 42.2154C79.1954 40.795 79.5722 39.1478 79.5722 37.2741Z" fill="#C6C3FF"/>
<path d="M100.677 50.0581C98.5969 50.0581 96.7281 49.6954 95.0703 48.9701C93.4426 48.2145 92.1616 47.187 91.2272 45.8874C90.2928 44.5576 89.8105 43.0314 89.7803 41.3087H94.166C94.3167 42.7896 94.9196 44.0439 95.9746 45.0714C97.0597 46.0687 98.6271 46.5674 100.677 46.5674C102.636 46.5674 104.173 46.0839 105.288 45.1167C106.434 44.1194 107.007 42.8501 107.007 41.3087C107.007 40.0999 106.675 39.1176 106.012 38.3621C105.349 37.6065 104.52 37.0323 103.525 36.6394C102.53 36.2465 101.189 35.8234 99.5012 35.3701C97.4214 34.8261 95.7485 34.2821 94.4825 33.7381C93.2467 33.1941 92.1766 32.3479 91.2724 31.1994C90.3983 30.0207 89.9612 28.4492 89.9612 26.4847C89.9612 24.7621 90.3983 23.2359 91.2724 21.9061C92.1465 20.5763 93.3673 19.5487 94.9347 18.8234C96.5322 18.0981 98.3558 17.7354 100.405 17.7354C103.359 17.7354 105.771 18.4759 107.64 19.9567C109.539 21.4376 110.609 23.4021 110.85 25.8501H106.328C106.178 24.6412 105.545 23.5834 104.429 22.6767C103.314 21.7399 101.837 21.2714 99.9985 21.2714C98.2804 21.2714 96.8788 21.7247 95.7937 22.6314C94.7086 23.5079 94.166 24.747 94.166 26.3487C94.166 27.4972 94.4825 28.4341 95.1155 29.1594C95.7786 29.8847 96.5774 30.4439 97.5118 30.8367C98.4764 31.1994 99.8177 31.6225 101.536 32.1061C103.616 32.6803 105.288 33.2545 106.554 33.8287C107.82 34.3727 108.906 35.2341 109.81 36.4127C110.714 37.5612 111.166 39.1327 111.166 41.1274C111.166 42.6687 110.759 44.1194 109.945 45.4794C109.132 46.8394 107.926 47.9425 106.328 48.7887C104.731 49.635 102.847 50.0581 100.677 50.0581ZM122.24 28.2981V42.9407C122.24 44.1496 122.496 45.011 123.008 45.5247C123.521 46.0083 124.41 46.2501 125.676 46.2501H128.705V49.7407H124.998C122.707 49.7407 120.989 49.2119 119.843 48.1541C118.698 47.0963 118.125 45.3585 118.125 42.9407V28.2981H114.915V24.8981H118.125V18.6421H122.24V24.8981H128.705V28.2981H122.24ZM144.497 50.1487C142.176 50.1487 140.066 49.6199 138.167 48.5621C136.298 47.5043 134.821 46.0083 133.736 44.0741C132.681 42.1096 132.153 39.843 132.153 37.2741C132.153 34.7354 132.696 32.499 133.781 30.5647C134.896 28.6003 136.403 27.1043 138.302 26.0767C140.201 25.019 142.326 24.4901 144.677 24.4901C147.029 24.4901 149.154 25.019 151.052 26.0767C152.951 27.1043 154.443 28.5852 155.529 30.5194C156.644 32.4536 157.201 34.7052 157.201 37.2741C157.201 39.843 156.629 42.1096 155.483 44.0741C154.368 46.0083 152.846 47.5043 150.917 48.5621C148.988 49.6199 146.848 50.1487 144.497 50.1487ZM144.497 46.5221C145.974 46.5221 147.36 46.1745 148.656 45.4794C149.952 44.7843 150.992 43.7416 151.776 42.3514C152.59 40.9612 152.997 39.2687 152.997 37.2741C152.997 35.2794 152.605 33.587 151.821 32.1967C151.037 30.8065 150.013 29.779 148.747 29.1141C147.481 28.419 146.109 28.0714 144.632 28.0714C143.125 28.0714 141.739 28.419 140.473 29.1141C139.237 29.779 138.242 30.8065 137.489 32.1967C136.735 33.587 136.358 35.2794 136.358 37.2741C136.358 39.299 136.72 41.0065 137.443 42.3967C138.197 43.787 139.192 44.8296 140.427 45.5247C141.663 46.1896 143.02 46.5221 144.497 46.5221ZM192.406 24.4447C194.335 24.4447 196.053 24.8527 197.561 25.6687C199.068 26.4545 200.258 27.6483 201.132 29.2501C202.007 30.8519 202.444 32.8012 202.444 35.0981V49.7407H198.374V35.6874C198.374 33.2092 197.757 31.3203 196.521 30.0207C195.315 28.691 193.672 28.0261 191.592 28.0261C189.452 28.0261 187.749 28.7212 186.483 30.1114C185.217 31.4714 184.584 33.451 184.584 36.0501V49.7407H180.515V35.6874C180.515 33.2092 179.897 31.3203 178.661 30.0207C177.456 28.691 175.813 28.0261 173.733 28.0261C171.593 28.0261 169.89 28.7212 168.624 30.1114C167.358 31.4714 166.725 33.451 166.725 36.0501V49.7407H162.611V24.8981H166.725V28.4794C167.539 27.1799 168.624 26.1825 169.981 25.4874C171.367 24.7923 172.889 24.4447 174.547 24.4447C176.627 24.4447 178.466 24.9132 180.063 25.8501C181.661 26.787 182.851 28.1621 183.635 29.9754C184.328 28.2225 185.474 26.8625 187.071 25.8954C188.669 24.9283 190.447 24.4447 192.406 24.4447ZM213.307 29.4767C214.121 28.0563 215.327 26.8776 216.924 25.9407C218.552 24.9736 220.436 24.4901 222.576 24.4901C224.776 24.4901 226.766 25.019 228.544 26.0767C230.353 27.1345 231.769 28.6305 232.794 30.5647C233.819 32.4687 234.332 34.6901 234.332 37.2287C234.332 39.7372 233.819 41.9736 232.794 43.9381C231.769 45.9025 230.353 47.4287 228.544 48.5167C226.766 49.6047 224.776 50.1487 222.576 50.1487C220.466 50.1487 218.597 49.6803 216.97 48.7434C215.372 47.7763 214.151 46.5825 213.307 45.1621V61.5274H209.193V24.8981H213.307V29.4767ZM230.127 37.2287C230.127 35.355 229.75 33.723 228.996 32.3327C228.243 30.9425 227.218 29.8847 225.922 29.1594C224.656 28.4341 223.254 28.0714 221.717 28.0714C220.21 28.0714 218.808 28.4492 217.512 29.2047C216.246 29.9301 215.221 31.003 214.438 32.4234C213.684 33.8136 213.307 35.4305 213.307 37.2741C213.307 39.1479 213.684 40.795 214.438 42.2154C215.221 43.6056 216.246 44.6785 217.512 45.4341C218.808 46.1594 220.21 46.5221 221.717 46.5221C223.254 46.5221 224.656 46.1594 225.922 45.4341C227.218 44.6785 228.243 43.6056 228.996 42.2154C229.75 40.795 230.127 39.1327 230.127 37.2287ZM243.862 28.9327C244.585 27.5123 245.61 26.4092 246.936 25.6234C248.292 24.8376 249.935 24.4447 251.864 24.4447V28.7061H250.779C246.167 28.7061 243.862 31.2145 243.862 36.2314V49.7407H239.747V24.8981H243.862V28.9327Z" fill="#C6C3FF"/>
<path d="M257.925 50.0128C257.142 50.0128 256.479 49.7408 255.936 49.1968C255.393 48.6528 255.122 47.9879 255.122 47.2021C255.122 46.4163 255.393 45.7514 255.936 45.2074C256.479 44.6634 257.142 44.3914 257.925 44.3914C258.679 44.3914 259.312 44.6634 259.824 45.2074C260.367 45.7514 260.638 46.4163 260.638 47.2021C260.638 47.9879 260.367 48.6528 259.824 49.1968C259.312 49.7408 258.679 50.0128 257.925 50.0128Z" fill="#007174"/>
</svg>
